<svg width="21" height="20" viewBox="0 0 21 20" fill="none" xmlns="http://www.w3.org/2000/svg">
<g>
<path d="M18.2168 12.2755L16.0005 15.1738C15.557 15.7537 14.8687 16.0938 14.1387 16.0938H10.0234C9.69984 16.0938 9.4375 15.8315 9.4375 15.5079C9.4375 15.1843 9.69984 14.9219 10.0234 14.9219H13.5902C14.3568 14.9219 14.9988 14.2946 14.9841 13.5281C14.9699 12.7853 14.3634 12.1876 13.6172 12.1876H9.51562C8.33801 11.0553 6.52074 10.9228 5.19133 11.8723L4.75 12.1876V18.8282H8.65625H9.4375H14.94C16.1363 18.8282 17.2504 18.2199 17.8973 17.2137L20.1839 13.6566C20.3087 13.4626 20.375 13.2368 20.375 13.0062C20.375 11.8559 18.9154 11.3618 18.2168 12.2755Z" fill="#000"/>
<path d="M2.99219 11.0156H0.960938C0.637344 11.0156 0.375 11.278 0.375 11.6016V19.4141C0.375 19.7377 0.637344 20 0.960938 20H2.99219C3.31578 20 3.57812 19.7377 3.57812 19.4141V11.6016C3.57812 11.278 3.31578 11.0156 2.99219 11.0156Z" fill="#000"/>
<path d="M11.559 3.23828C11.4398 3.32969 11.3741 3.46809 11.3515 3.58813C11.3203 3.75371 11.3598 3.90754 11.4521 3.97996C11.4847 4.00547 11.5205 4.03055 11.559 4.0552V3.23828Z" fill="#000"/>
<path d="M11.9766 9.76562C14.6689 9.76562 16.8594 7.5752 16.8594 4.88281C16.8594 2.19043 14.6689 0 11.9766 0C9.28418 0 7.09375 2.19043 7.09375 4.88281C7.09375 7.5752 9.28418 9.76562 11.9766 9.76562ZM10.4985 6.47926C10.6165 6.29879 10.8587 6.24801 11.0392 6.36621C11.2502 6.50422 11.3824 6.56406 11.559 6.58887V4.93922C11.3095 4.82488 11.123 4.71484 10.97 4.5948C10.6458 4.34055 10.4978 3.89945 10.5837 3.44355C10.6773 2.94676 11.0231 2.55148 11.4861 2.41203C11.5107 2.40465 11.5349 2.39789 11.559 2.39152V2.14844C11.559 1.93273 11.7339 1.75781 11.9496 1.75781C12.1653 1.75781 12.3402 1.93273 12.3402 2.14844V2.34871C12.7195 2.41438 12.9875 2.60109 13.1174 2.75012C13.2591 2.91277 13.2421 3.15953 13.0794 3.30121C12.9176 3.44215 12.6727 3.42613 12.5305 3.26586C12.5216 3.25684 12.4596 3.19707 12.3402 3.15305V4.41523C12.4096 4.44098 12.4789 4.46594 12.5469 4.49C13.2335 4.73273 13.6154 5.36836 13.4972 6.07168C13.4053 6.61836 12.9893 7.17277 12.3402 7.33742V7.61719C12.3402 7.83289 12.1653 8.00781 11.9496 8.00781C11.7339 8.00781 11.559 7.83289 11.559 7.61719V7.37492C11.2436 7.34766 10.9821 7.26246 10.6115 7.02C10.431 6.90188 10.3804 6.6598 10.4985 6.47926Z" fill="#000"/>
<path d="M12.7268 5.94237C12.7525 5.78968 12.763 5.42581 12.3402 5.2478V6.50253C12.5599 6.37667 12.6912 6.15409 12.7268 5.94237Z" fill="#000"/>
</g>
</svg>
