<svg width="24" height="24" viewBox="0 0 24 24" fill="none" xmlns="http://www.w3.org/2000/svg">
<g>
<path d="M12.2606 4.74733C12.1908 4.68057 12.098 4.64331 12.0014 4.64331C11.9048 4.64331 11.812 4.68057 11.7422 4.74733L3.11249 12.9912C3.07584 13.0263 3.04668 13.0684 3.02678 13.1151C3.00688 13.1617 2.99665 13.2119 2.99671 13.2626L2.9953 20.9998C2.9953 21.3977 3.15334 21.7792 3.43464 22.0605C3.71594 22.3418 4.09748 22.4998 4.4953 22.4998H8.99999C9.1989 22.4998 9.38967 22.4208 9.53032 22.2802C9.67097 22.1395 9.74999 21.9487 9.74999 21.7498V15.3748C9.74999 15.2754 9.7895 15.18 9.85982 15.1097C9.93015 15.0393 10.0255 14.9998 10.125 14.9998H13.875C13.9744 14.9998 14.0698 15.0393 14.1402 15.1097C14.2105 15.18 14.25 15.2754 14.25 15.3748V21.7498C14.25 21.9487 14.329 22.1395 14.4697 22.2802C14.6103 22.4208 14.8011 22.4998 15 22.4998H19.5028C19.9006 22.4998 20.2822 22.3418 20.5635 22.0605C20.8448 21.7792 21.0028 21.3977 21.0028 20.9998V13.2626C21.0029 13.2119 20.9926 13.1617 20.9727 13.1151C20.9528 13.0684 20.9237 13.0263 20.887 12.9912L12.2606 4.74733Z" fill="#000"/>
<path d="M23.0114 11.4445L19.5052 8.09016V3C19.5052 2.80109 19.4262 2.61032 19.2855 2.46967C19.1449 2.32902 18.9541 2.25 18.7552 2.25H16.5052C16.3063 2.25 16.1155 2.32902 15.9748 2.46967C15.8342 2.61032 15.7552 2.80109 15.7552 3V4.5L13.0402 1.90406C12.7861 1.64719 12.4083 1.5 12 1.5C11.5931 1.5 11.2163 1.64719 10.9622 1.90453L0.991893 11.4436C0.70033 11.7249 0.663768 12.1875 0.92908 12.4922C0.995704 12.5691 1.07728 12.6317 1.16885 12.676C1.26041 12.7204 1.36005 12.7457 1.46169 12.7503C1.56334 12.755 1.66487 12.7389 1.7601 12.7031C1.85533 12.6672 1.94228 12.6124 2.01564 12.5419L11.7422 3.2475C11.812 3.18074 11.9048 3.14348 12.0014 3.14348C12.098 3.14348 12.1909 3.18074 12.2606 3.2475L21.9881 12.5419C22.1314 12.6793 22.3234 12.7543 22.5219 12.7504C22.7204 12.7466 22.9092 12.6642 23.0471 12.5213C23.3349 12.2231 23.311 11.7309 23.0114 11.4445Z" fill="#000"/>
</g>
</svg>
