<svg width="23" height="20" viewBox="0 0 23 20" fill="none" xmlns="http://www.w3.org/2000/svg">
<path opacity="0.64" d="M21.8438 19.6934H8.93577C8.38769 19.6934 7.94238 19.2481 7.94238 18.7001C7.94238 18.152 8.38769 17.7067 8.93577 17.7067H21.8438C22.3919 17.7067 22.8372 18.152 22.8372 18.7001C22.8372 19.2496 22.3919 19.6934 21.8438 19.6934Z" fill="#FAD416"/>
<path opacity="0.64" d="M19.1299 1.96741L17.7254 0.562968C16.9748 -0.187656 15.6672 -0.187656 14.918 0.562968L12.8643 2.61676L17.0761 6.82859L19.1299 4.7748C19.5052 4.39949 19.7122 3.90205 19.7122 3.37036C19.7122 2.84165 19.5052 2.34272 19.1299 1.96741V1.96741Z" fill="#FAD416"/>
<path d="M11.4614 4.02136L1.22826 14.2546C1.16272 14.3201 1.11656 14.402 1.09571 14.4914L0.0129621 19.0845C-0.0257604 19.2513 0.0233871 19.427 0.145512 19.5491C0.23934 19.643 0.365933 19.6951 0.496994 19.6951C0.534227 19.6951 0.57295 19.6906 0.610183 19.6817L5.20328 18.5989C5.29264 18.5781 5.37604 18.5319 5.44008 18.4664L15.6733 8.23319L11.4614 4.02136Z" fill="#FAD416"/>
</svg>
