<svg width="20" height="20" viewBox="0 0 20 20" fill="none" xmlns="http://www.w3.org/2000/svg">
<path d="M19.6 2.9117C19.6 1.52444 18.4755 0.399902 17.0882 0.399902H2.91182C1.52457 0.399902 0.400024 1.52444 0.400024 2.9117V17.088C0.400024 18.4754 1.52457 19.5999 2.91182 19.5999H17.0881C18.4755 19.5999 19.6 18.4754 19.6 17.0881V2.9117ZM4.70981 16.078C4.29381 16.1896 3.91311 15.8089 4.0247 15.3929L4.71455 12.8216L7.28106 15.3881L4.70981 16.078ZM15.7937 6.72692L8.19791 14.3228L5.64317 11.7681L13.2389 4.17229C13.5992 3.81203 14.1831 3.81203 14.5434 4.17229L15.7937 5.42256C16.1538 5.78272 16.1538 6.36666 15.7937 6.72692Z" fill="#06923D"/>
</svg>
