<svg width="24" height="24" viewBox="0 0 24 24" fill="none" xmlns="http://www.w3.org/2000/svg">
<path d="M8.68164 21.8347C9.24502 23.1084 10.52 23.9998 12 23.9998C13.4799 23.9998 14.7548 23.1084 15.3183 21.8347H8.68164Z" fill="#FFBC15"/>
<path d="M11.9997 2.29297C12.9763 2.29297 13.914 2.46528 14.7842 2.78076V2.67356C14.7842 1.19935 13.5849 0 12.1107 0H11.8891C10.4149 0 9.21558 1.19935 9.21558 2.67356V2.77939C10.0853 2.46486 11.0228 2.29297 11.9997 2.29297Z" fill="#FFBC15"/>
<path d="M20.7879 20.4265H3.21187C2.87935 20.4265 2.57477 20.2022 2.50561 19.8769C2.43716 19.5549 2.58393 19.237 2.8817 19.0995C2.95236 19.0536 3.48424 18.6817 4.01673 17.5565C4.9947 15.4901 5.19998 12.5793 5.19998 10.5013C5.19998 6.75192 8.25033 3.70166 11.9997 3.70166C15.7401 3.70166 18.7849 6.73723 18.7993 10.4743C18.7996 10.4833 18.7998 10.4923 18.7998 10.5013C18.7998 12.5793 19.0051 15.4901 19.9831 17.5565C20.5156 18.6817 21.0474 19.0537 21.1181 19.0995C21.4159 19.237 21.5627 19.5549 21.4942 19.8769C21.425 20.2022 21.1205 20.4265 20.7879 20.4265ZM21.126 19.1044H21.1265H21.126Z" fill="#FFBC15"/>
</svg>
