<svg width="24" height="24" viewBox="0 0 24 24" fill="none" xmlns="http://www.w3.org/2000/svg">
<path d="M21.5999 4.9117C21.5999 3.52444 20.4754 2.3999 19.0881 2.3999H4.9117C3.52444 2.3999 2.3999 3.52444 2.3999 4.9117V19.088C2.3999 20.4754 3.52444 21.5999 4.9117 21.5999H19.088C20.4754 21.5999 21.5999 20.4754 21.5999 19.0881V4.9117ZM6.70968 18.078C6.29368 18.1896 5.91299 17.8089 6.02457 17.3929L6.71443 14.8216L9.28094 17.3881L6.70968 18.078ZM17.7936 8.72692L10.1978 16.3228L7.64305 13.7681L15.2388 6.17229C15.5991 5.81203 16.183 5.81203 16.5433 6.17229L17.7936 7.42256C18.1537 7.78272 18.1537 8.36666 17.7936 8.72692Z" fill="#008E7E"/>
<path d="M17.7936 8.72692L10.1978 16.3228L7.64305 13.7681L15.2388 6.17229C15.5991 5.81203 16.183 5.81203 16.5433 6.17229L17.7936 7.42256C18.1537 7.78272 18.1537 8.36666 17.7936 8.72692Z" fill="#008E7E"/>
<path d="M6.70968 18.078C6.29368 18.1896 5.91299 17.8089 6.02457 17.3929L6.71443 14.8216L9.28094 17.3881L6.70968 18.078Z" fill="#008E7E"/>
<path d="M12.8052 12.7729H16.0272C16.4541 12.7729 16.8002 12.4268 16.8002 12C16.8002 11.5731 16.4541 11.227 16.0272 11.227H12.8052V8.00492C12.8052 7.56035 12.4448 7.19995 12.0002 7.19995C11.5556 7.19995 11.1952 7.56035 11.1952 8.00492V11.227H7.97316C7.54626 11.227 7.2002 11.5731 7.2002 12C7.2002 12.4268 7.54626 12.7729 7.97316 12.7729H11.1952V15.995C11.1952 16.4396 11.5556 16.8 12.0002 16.8C12.4448 16.8 12.8052 16.4396 12.8052 15.995V12.7729Z" fill="white"/>
</svg>
