<svg width="43" height="42" viewBox="0 0 43 42" fill="none" xmlns="http://www.w3.org/2000/svg">
<circle opacity="0.07" cx="21.625" cy="21" r="21" fill="#FF3B30"/>
<path d="M28.5287 11H14.7214C14.3978 11 14.1354 11.2623 14.1354 11.5859V28.6881C14.1354 28.8435 14.1972 28.9925 14.307 29.1024L16.033 30.8284C16.2618 31.0572 16.6328 31.0572 16.8616 30.8284L18.1732 29.5168L19.4848 30.8284C19.5946 30.9382 19.7437 31 19.8991 31C20.0544 31 20.2035 30.9383 20.3134 30.8284L21.625 29.5168L22.9366 30.8284C23.0464 30.9382 23.1955 31 23.3508 31C23.5062 31 23.6553 30.9383 23.7652 30.8284L25.0767 29.5168L26.3883 30.8284C26.5028 30.9428 26.6526 31 26.8026 31C26.9526 31 27.1026 30.9428 27.2169 30.8284L28.9429 29.1024C29.0528 28.9925 29.1145 28.8435 29.1145 28.6881V11.5859C29.1146 11.2623 28.8522 11 28.5287 11ZM21.039 15.4012V14.724C21.039 14.4004 21.3014 14.138 21.6249 14.138C21.9485 14.138 22.2109 14.4004 22.2109 14.724V15.3932H22.8802C23.2037 15.3932 23.4661 15.6556 23.4661 15.9792C23.4661 16.3028 23.2037 16.5651 22.8802 16.5651H21.2066C20.8376 16.5651 20.5373 16.8653 20.5373 17.2344C20.5373 17.6034 20.8376 17.9037 21.2066 17.9037H22.0434C23.0586 17.9037 23.8846 18.7296 23.8846 19.7448C23.8846 20.7035 23.1479 21.4931 22.2109 21.578V22.2553C22.2109 22.5788 21.9485 22.8412 21.6249 22.8412C21.3014 22.8412 21.039 22.5788 21.039 22.2553V21.5859H20.3697C20.0462 21.5859 19.7838 21.3236 19.7838 21C19.7838 20.6764 20.0462 20.414 20.3697 20.414H22.0434C22.4125 20.414 22.7127 20.1138 22.7127 19.7448C22.7127 19.3758 22.4125 19.0755 22.0434 19.0755H21.2066C20.1914 19.0755 19.3655 18.2496 19.3655 17.2343C19.3655 16.2757 20.1021 15.4862 21.039 15.4012ZM24.763 25.9792H18.487C18.1634 25.9792 17.9011 25.7168 17.9011 25.3932C17.9011 25.0696 18.1634 24.8073 18.487 24.8073H24.763C25.0866 24.8073 25.349 25.0696 25.349 25.3932C25.349 25.7168 25.0866 25.9792 24.763 25.9792Z" fill="#FF3B30"/>
</svg>
