<svg width="43" height="42" viewBox="0 0 43 42" fill="none" xmlns="http://www.w3.org/2000/svg">
<circle opacity="0.07" cx="21.375" cy="21" r="21" fill="#9A84F2"/>
<g clip-path="url(#clip0)">
<path d="M16.919 16.5731C17.4974 15.9948 18.1711 15.5406 18.9217 15.223C19.6994 14.8942 20.5248 14.7274 21.375 14.7274C22.2252 14.7274 23.0506 14.8942 23.8283 15.223C24.5789 15.5406 25.2527 15.9948 25.831 16.5731C26.081 16.8231 26.3077 17.091 26.5102 17.3751V16.6993C26.5102 14.5323 24.7472 12.7693 22.5801 12.7693H17.705V11.0391L11.375 15.0276L15.9117 17.8861C16.1869 17.4079 16.5239 16.9682 16.919 16.5731Z" fill="#9A84F2"/>
<path d="M31.375 27.0309L26.8383 24.1724C26.5631 24.6506 26.2261 25.0902 25.831 25.4854C25.2526 26.0637 24.5789 26.5179 23.8283 26.8353C23.0506 27.1643 22.2252 27.3311 21.375 27.3311C20.5248 27.3311 19.6994 27.1643 18.9217 26.8353C18.1711 26.5179 17.4973 26.0637 16.919 25.4854C16.669 25.2354 16.4423 24.9675 16.2398 24.6834V25.3592C16.2398 27.5262 18.0028 29.2892 20.1699 29.2892H25.0452V31.0194L31.375 27.0309Z" fill="#9A84F2"/>
<path d="M16.2463 21.0292C16.2463 23.8617 18.5425 26.158 21.375 26.158C24.2076 26.158 26.5038 23.8617 26.5038 21.0292C26.5038 18.1967 24.2076 15.9004 21.375 15.9004C18.5425 15.9004 16.2463 18.1967 16.2463 21.0292ZM19.4223 20.1956C19.4223 19.4709 19.9481 18.8617 20.9999 18.7143V18.0153H21.904V18.7014C22.3785 18.7463 22.8403 18.8681 23.2057 19.0733L22.7504 20.1698C22.308 19.9453 21.8912 19.8364 21.4999 19.8364C21.0576 19.8364 20.9164 19.9646 20.9164 20.1185C20.9164 20.6572 23.3981 20.2083 23.3981 21.8628C23.3981 22.5554 22.8979 23.1581 21.904 23.3313V24.0431H20.9999V23.3633C20.3586 23.3249 19.7366 23.1517 19.3518 22.9144L19.8392 21.8115C20.2625 22.0616 20.8267 22.222 21.3205 22.222C21.75 22.222 21.904 22.1321 21.904 21.9783C21.904 21.4138 19.4223 21.8692 19.4223 20.1956Z" fill="#9A84F2"/>
</g>
<defs>
<clipPath id="clip0">
<rect width="20" height="20" fill="white" transform="translate(11.375 11)"/>
</clipPath>
</defs>
</svg>
