<svg width="24" height="24" viewBox="0 0 24 24" fill="none" xmlns="http://www.w3.org/2000/svg">
<path d="M5.36084 9.468L7.03897 22.2229C7.08809 22.596 7.40609 22.875 7.78259 22.875H16.2171C16.5936 22.875 16.9116 22.596 16.9607 22.2229L18.2563 12.375L18.7498 8.625H6.20384L5.36084 9.468Z" fill="#F42A1F"/>
<path d="M11.25 11.625V19.875C11.25 20.2894 11.5856 20.625 12 20.625C12.4144 20.625 12.75 20.2894 12.75 19.875V11.625C12.75 11.2106 12.4144 10.875 12 10.875C11.5856 10.875 11.25 11.2106 11.25 11.625Z" fill="#F2F8FF"/>
<path d="M8.25 11.625V19.875C8.25 20.2894 8.58562 20.625 9 20.625C9.41438 20.625 9.75 20.2894 9.75 19.875V11.625C9.75 11.2106 9.41438 10.875 9 10.875C8.58562 10.875 8.25 11.2106 8.25 11.625Z" fill="#F2F8FF"/>
<path d="M14.25 11.625V19.875C14.25 20.2894 14.5856 20.625 15 20.625C15.4144 20.625 15.75 20.2894 15.75 19.875V11.625C15.75 11.2106 15.4144 10.875 15 10.875C14.5856 10.875 14.25 11.2106 14.25 11.625Z" fill="#F2F8FF"/>
<path d="M11.25 6.375L12.75 7.125H14.625L13.875 5.25L12.375 4.875L11.25 6.375Z" fill="#F42A1F"/>
<path d="M18 3.75L16.125 4.125V4.875L16.5 6.375L19.5 6L18.375 4.5L18 3.75Z" fill="#F42A1F"/>
<path d="M11.3145 1.39348C11.0216 1.10061 10.5469 1.10061 10.254 1.39348L1.76848 9.87861C1.47561 10.1715 1.47561 10.6462 1.76848 10.9391L2.82898 12L12.375 2.45398L11.3145 1.39348Z" fill="#F42A1F"/>
<path opacity="0.12" d="M16.9607 22.2229L17.1073 21.108C12.2946 19.4179 8.97434 14.7094 9.27097 9.36862L9.31222 8.625H6.20384L5.36084 9.468L7.03897 22.2229C7.08809 22.596 7.40609 22.875 7.78259 22.875H16.2171C16.5936 22.875 16.9116 22.596 16.9607 22.2229Z" fill="#303030"/>
<path opacity="0.12" d="M10.1359 3.36411L2.16455 11.3355L2.82905 12L12.3751 2.45398L11.3146 1.39348C11.0217 1.10061 10.5469 1.10061 10.2541 1.39348L10.1363 1.51123C10.6478 2.02273 10.6478 2.85223 10.1359 3.36411Z" fill="#303030"/>
<path opacity="0.12" d="M18.3749 4.5L17.9999 3.75L17.3182 3.8865L17.6249 4.5L18.7499 6L16.4771 6.28425L16.4999 6.375L19.4999 6L18.3749 4.5Z" fill="#303030"/>
<path opacity="0.12" d="M13.1251 5.625L13.7251 7.125H14.6251L13.8751 5.25L12.3751 4.875L12.02 5.34862L13.1251 5.625Z" fill="#303030"/>
<path d="M3.88957 7.75746L3.0942 6.96209C2.65545 6.52371 2.65545 5.80971 3.0942 5.37096L5.74582 2.71934C6.1842 2.28059 6.89782 2.28021 7.33695 2.71934L8.13232 3.51471L7.60207 4.04496L6.8067 3.24959C6.66045 3.10334 6.42232 3.10371 6.27607 3.24959L3.62445 5.90121C3.4782 6.04746 3.4782 6.28521 3.62445 6.43184L4.41982 7.22721L3.88957 7.75746Z" fill="#F42A1F"/>
<path d="M16.5 0.75H17.25V1.5H16.5V0.75Z" fill="#F42A1F"/>
<path d="M20.2584 3.67231L19.8013 3.07756C20.8014 2.30881 22.0846 2.00957 23.3236 2.25706L23.1766 2.99244C22.1514 2.78806 21.0875 3.03556 20.2584 3.67231Z" fill="#F42A1F"/>
<path d="M21.375 4.5H22.125V5.25H21.375V4.5Z" fill="#F42A1F"/>
<path d="M18.75 2.625H18C18 1.59113 18.8411 0.75 19.875 0.75V1.5C19.2548 1.5 18.75 2.00475 18.75 2.625Z" fill="#F42A1F"/>
</svg>
