<svg width="43" height="42" viewBox="0 0 43 42" fill="none" xmlns="http://www.w3.org/2000/svg">
<circle opacity="0.07" cx="21.875" cy="21" r="21" fill="#FF2D55"/>
<path d="M29.2524 15.2882L25.0868 11.1226C25.0113 11.0469 24.9071 11 24.7917 11H16.0417C15.1229 11 14.375 11.7475 14.375 12.6667V29.3334C14.375 30.2525 15.1229 31 16.0417 31H27.7084C28.6271 31 29.375 30.2525 29.375 29.3333V15.5833C29.375 15.4679 29.3281 15.3637 29.2524 15.2882ZM17.2917 15.1667H22.2917C22.522 15.1667 22.7084 15.353 22.7084 15.5834C22.7084 15.8137 22.522 16 22.2917 16H17.2917C17.0614 16 16.875 15.8137 16.875 15.5834C16.875 15.353 17.0614 15.1667 17.2917 15.1667ZM23.4171 26.7137C21.6032 28.5 21.1808 28.5 21.0417 28.5C20.5241 28.5 20.3386 27.9059 20.1465 27.2695C19.8559 27.8591 19.5215 28.5 18.9583 28.5C18.6686 28.5 18.3219 28.3092 17.9956 28.0186C17.8402 28.1732 17.6855 28.3088 17.5415 28.4166C17.4666 28.4728 17.3787 28.5 17.2916 28.5C17.1655 28.5 17.0402 28.4426 16.958 28.3332C16.8204 28.1493 16.8579 27.888 17.0418 27.7501C17.1736 27.6508 17.3079 27.5312 17.4398 27.3993C17.1086 26.9424 16.875 26.4216 16.875 26C16.875 25.0491 17.6335 24.3333 18.125 24.3333C18.6084 24.3333 19.375 24.6727 19.375 25.5833C19.375 26.1139 19.0063 26.8004 18.5473 27.3932C18.7174 27.5519 18.8721 27.6573 18.9624 27.6666C19.0543 27.602 19.3074 27.0868 19.4295 26.8394C19.6785 26.334 19.8429 26 20.2083 26C20.6356 26 20.7682 26.4431 20.9375 27.0042C20.9871 27.1706 21.0693 27.4448 21.1418 27.6088C21.4477 27.4021 22.22 26.7226 22.8329 26.1196C22.9972 25.9588 23.2609 25.9596 23.422 26.1245C23.5832 26.2885 23.5816 26.5521 23.4171 26.7137ZM26.4583 23.5H20.625C20.3947 23.5 20.2083 23.3136 20.2083 23.0833C20.2083 22.853 20.3947 22.6666 20.625 22.6666H26.4583C26.6886 22.6666 26.875 22.853 26.875 23.0833C26.875 23.3136 26.6886 23.5 26.4583 23.5ZM26.4583 21H17.2917C17.0614 21 16.875 20.8136 16.875 20.5833C16.875 20.353 17.0614 20.1666 17.2917 20.1666H26.4584C26.6887 20.1666 26.875 20.353 26.875 20.5833C26.875 20.8136 26.6886 21 26.4583 21ZM26.4583 18.5H17.2917C17.0614 18.5 16.875 18.3136 16.875 18.0833C16.875 17.853 17.0614 17.6666 17.2917 17.6666H26.4584C26.6887 17.6666 26.875 17.853 26.875 18.0833C26.875 18.3136 26.6886 18.5 26.4583 18.5ZM26.0417 15.1667C25.5819 15.1667 25.2084 14.7927 25.2084 14.3334V12.4225L27.9525 15.1667H26.0417Z" fill="#FF2D55"/>
<path d="M18.125 25.1665C18.081 25.1942 17.7083 25.4916 17.7083 25.9998C17.7083 26.213 17.8287 26.4808 17.998 26.7388C18.3171 26.2973 18.5417 25.8489 18.5417 25.5832C18.5417 25.1864 18.1942 25.1665 18.125 25.1665Z" fill="#FF2D55"/>
</svg>
