<svg width="43" height="42" viewBox="0 0 43 42" fill="none" xmlns="http://www.w3.org/2000/svg">
<circle opacity="0.07" cx="21.125" cy="21" r="21" fill="#AF52DE"/>
<g clip-path="url(#clip0)">
<path d="M18.501 23.1811H28.5728C29.1461 23.1811 29.454 22.5652 29.6148 22.011L31.125 14.9368H15.9493L17.4591 22.011C17.5791 22.5718 17.928 23.1811 18.501 23.1811ZM26.9821 21.375L28.0241 16.4694C28.0838 16.1881 28.3597 16.0082 28.6418 16.0681C28.9232 16.1278 29.1029 16.4045 29.0432 16.6858L28.0012 21.5914C27.9491 21.8363 27.733 22.0042 27.4921 22.0042C27.4563 22.0042 27.4199 22.0004 27.3835 21.9927C27.1019 21.933 26.9226 21.6565 26.9821 21.375ZM24.3672 21.4464L24.7147 16.5408C24.7348 16.2538 24.9831 16.0379 25.2711 16.058C25.5581 16.0783 25.7742 16.3274 25.7539 16.6146L25.4064 21.5202C25.3871 21.7947 25.1585 22.0044 24.8874 22.0044C24.875 22.0044 24.8627 22.004 24.8501 22.0032C24.5631 21.9825 24.3469 21.7334 24.3672 21.4464ZM21.7244 16.0578C22.0091 16.0371 22.2607 16.2537 22.2808 16.5406L22.6281 21.4462C22.6486 21.7332 22.432 21.9823 22.1453 22.0028C22.1326 22.0036 22.1204 22.004 22.1079 22.004C21.8369 22.004 21.6082 21.7943 21.5889 21.5198L21.2417 16.6145C21.2211 16.3275 21.4375 16.0781 21.7244 16.0578ZM18.3537 16.0681C18.6354 16.0084 18.9115 16.1881 18.9714 16.4694L20.0134 21.375C20.0732 21.6563 19.8936 21.933 19.6119 21.9928C19.5754 22.0006 19.5391 22.0042 19.5033 22.0042C19.2626 22.0042 19.0462 21.8363 18.9941 21.5914L17.9521 16.6858C17.8924 16.4043 18.0722 16.1278 18.3537 16.0681Z" fill="#AF52DE"/>
<path d="M19.1602 26.0203C18.1775 26.0203 17.3809 26.817 17.3809 27.7996C17.3809 28.7823 18.1776 29.579 19.1602 29.579C20.1429 29.579 20.9396 28.7823 20.9396 27.7996C20.9396 26.8169 20.1429 26.0203 19.1602 26.0203ZM19.1602 28.4668C18.7916 28.4668 18.493 28.1682 18.493 27.7996C18.493 27.4312 18.7916 27.1324 19.1602 27.1324C19.5288 27.1324 19.8274 27.4313 19.8274 27.7996C19.8276 28.1682 19.5288 28.4668 19.1602 28.4668Z" fill="#AF52DE"/>
<path d="M27.6123 26.0203C26.6294 26.0203 25.8327 26.817 25.8327 27.7996C25.8327 28.7823 26.6294 29.579 27.6123 29.579C28.595 29.579 29.3917 28.7823 29.3917 27.7996C29.3917 26.8169 28.595 26.0203 27.6123 26.0203ZM27.6123 28.4668C27.2437 28.4668 26.9451 28.1682 26.9451 27.7996C26.9451 27.4312 27.2437 27.1324 27.6123 27.1324C27.9807 27.1324 28.2795 27.4313 28.2795 27.7996C28.2797 28.1682 27.9807 28.4668 27.6123 28.4668Z" fill="#AF52DE"/>
<path d="M30.3074 25.2941H16.8397C16.3551 25.2941 15.9403 24.9643 15.8311 24.4924L13.3116 13.6281H11.7283C11.3951 13.6281 11.125 13.3581 11.125 13.0249C11.125 12.6917 11.3951 12.4216 11.7282 12.4216H13.4477C13.9319 12.4216 14.3467 12.7512 14.4563 13.2227L16.9761 24.0876H30.3076C30.6408 24.0876 30.9108 24.3577 30.9108 24.6909C30.9107 25.0242 30.6408 25.2941 30.3074 25.2941Z" fill="#AF52DE"/>
</g>
<defs>
<clipPath id="clip0">
<rect width="20" height="20" fill="white" transform="translate(11.125 11)"/>
</clipPath>
</defs>
</svg>
