<svg width="43" height="42" viewBox="0 0 43 42" fill="none" xmlns="http://www.w3.org/2000/svg">
<circle opacity="0.07" cx="21.375" cy="21" r="21" fill="#FF9500"/>
<path d="M28.0156 11H16.9277C16.7723 11 16.6233 11.0618 16.5134 11.1716L14.3201 13.365C14.2102 13.4749 14.1484 13.6239 14.1484 13.7793V30.4141C14.1484 30.7377 14.4108 31 14.7344 31H28.0156C28.3392 31 28.6016 30.7377 28.6016 30.4141V11.5859C28.6016 11.2623 28.3392 11 28.0156 11ZM19.432 16.0682C19.432 14.9882 20.2313 14.4695 21.1327 14.3419V14.1038C21.1327 13.9848 21.2688 13.8742 21.4559 13.8742C21.6174 13.8742 21.779 13.9848 21.779 14.1038V14.3164C22.3062 14.3334 23.3012 14.4695 23.3012 15.0562C23.3012 15.2858 23.1481 15.7535 22.7739 15.7535C22.4933 15.7535 22.3317 15.4814 21.779 15.4389V16.6804C22.5529 16.9696 23.4543 17.3693 23.4543 18.5173C23.4543 19.5717 22.7739 20.2095 21.779 20.3711V20.6177C21.779 20.7368 21.6175 20.8473 21.4559 20.8473C21.2688 20.8473 21.1327 20.7368 21.1327 20.6177V20.4051C20.1123 20.3711 19.2789 19.8439 19.2789 19.2996C19.2789 19.0105 19.5341 18.5853 19.8572 18.5853C20.2143 18.5853 20.5035 19.087 21.1327 19.1975V17.8199C20.3504 17.5223 19.432 17.1566 19.432 16.0682ZM25.6719 28.1875H17.0781C16.7545 28.1875 16.4922 27.9252 16.4922 27.6016C16.4922 27.278 16.7545 27.0156 17.0781 27.0156H25.6719C25.9955 27.0156 26.2578 27.278 26.2578 27.6016C26.2578 27.9252 25.9955 28.1875 25.6719 28.1875ZM25.6719 25.8438H17.0781C16.7545 25.8438 16.4922 25.5814 16.4922 25.2578C16.4922 24.9342 16.7545 24.6719 17.0781 24.6719H25.6719C25.9955 24.6719 26.2578 24.9342 26.2578 25.2578C26.2578 25.5814 25.9955 25.8438 25.6719 25.8438ZM25.6719 23.5H22.5469C22.2233 23.5 21.9609 23.2377 21.9609 22.9141C21.9609 22.5905 22.2233 22.3281 22.5469 22.3281H25.6719C25.9955 22.3281 26.2578 22.5905 26.2578 22.9141C26.2578 23.2377 25.9955 23.5 25.6719 23.5Z" fill="#FF9500"/>
<path d="M22.2127 18.6536C22.2127 18.373 22.0001 18.1944 21.694 18.0498V19.1893C21.9831 19.1213 22.2127 18.9597 22.2127 18.6536Z" fill="#FF9500"/>
<path d="M21.2178 15.4644C20.8351 15.5409 20.6735 15.7365 20.6735 15.9406C20.6735 16.1872 20.8947 16.3403 21.2178 16.4763V15.4644Z" fill="#FF9500"/>
</svg>
