<svg width="24" height="24" viewBox="0 0 24 24" fill="none" xmlns="http://www.w3.org/2000/svg">
<path d="M21.5999 4.91194C21.5999 3.52469 20.4754 2.40015 19.0881 2.40015H4.9117C3.52444 2.40015 2.3999 3.52469 2.3999 4.91194V19.0882C2.3999 20.4756 3.52444 21.6001 4.9117 21.6001H19.088C20.4754 21.6001 21.5999 20.4756 21.5999 19.0884V4.91194ZM6.70968 18.0783C6.29368 18.1899 5.91299 17.8092 6.02457 17.3932L6.71443 14.8218L9.28093 17.3883L6.70968 18.0783ZM17.7936 8.72717L10.1978 16.323L7.64305 13.7683L15.2388 6.17253C15.5991 5.81227 16.183 5.81227 16.5433 6.17253L17.7936 7.4228C18.1537 7.78296 18.1537 8.36691 17.7936 8.72717Z" fill="#FFBC15"/>
</svg>
