 <svg width="63" height="84" viewBox="0 0 43 64" fill="none" xmlns="http://www.w3.org/2000/svg">
                                    <path d="M36.9 17.1998V33.7998H32.2V17.1998C32.2 10.8998 27.4 5.7998 21.5 5.7998C15.6 5.7998 10.8 10.8998 10.8 17.2998V33.7998H6.10001V17.1998C6.10001 8.1998 13 0.799805 21.5 0.799805C30 0.799805 36.9 8.1998 36.9 17.1998Z" fill="#C7C7C7" />
                                    <path d="M6.10001 21.5L10.8 21.7V33.8H6.10001V21.5Z" fill="#A6A6A6" />
                                    <path d="M36.9 22.7996V33.7996H32.2V22.5996L36.9 22.7996Z" fill="#A6A6A6" />
                                    <path d="M42.9 24.3999H0.100006V63.2999H42.9V24.3999Z" fill="#FFC727" />
                                    <path opacity="0.1" d="M42.9 24.3999H21.5V63.2999H42.9V24.3999Z" fill="black" />
                                    <path d="M23.3 45.1997L25.1 53.6997H17.5L19.3 45.1997C18.2 44.4997 17.5 43.2997 17.5 41.9997C17.5 39.8997 19.2 38.1997 21.3 38.1997C23.4 38.1997 25.1 39.8997 25.1 41.9997C25.1 43.3997 24.4 44.4997 23.3 45.1997Z" fill="#263238" />
                                </svg>