<svg width="30" height="30" viewBox="0 0 36 36" fill="none" xmlns="http://www.w3.org/2000/svg">
<path fill-rule="evenodd" clip-rule="evenodd" d="M0 18C0 8.05887 8.05887 0 18 0V0C27.9411 0 36 8.05887 36 18V18C36 27.9411 27.9411 36 18 36V36C8.05887 36 0 27.9411 0 18V18Z" fill="#000"/>
<path fill-rule="evenodd" clip-rule="evenodd" d="M25.5952 17.0977V22.957L27.1069 24.4688C27.8452 25.207 27.3179 26.4727 26.2749 26.4727H10.8413C9.79832 26.4727 9.28269 25.207 10.021 24.4688L11.5327 22.957V17.0977C11.5327 13.4883 13.4429 10.4883 16.8061 9.69141V8.89453C16.8061 7.92188 17.5913 7.13672 18.5639 7.13672C19.5366 7.13672 20.3218 7.92188 20.3218 8.89453V9.69141C23.6733 10.4883 25.5952 13.5 25.5952 17.0977ZM20.9077 27.6445C20.9077 28.9336 19.853 29.9883 18.5639 29.9883C17.2632 29.9883 16.2202 28.9336 16.2202 27.6445H20.9077Z" fill="#0f1"/>
</svg>
