<svg width="43" height="42" viewBox="0 0 43 42" fill="none" xmlns="http://www.w3.org/2000/svg">
<path d="M21.0001 11C17.5107 11 14.6719 13.8598 14.6719 17.375C14.6719 20.8643 17.5107 23.7031 21.0001 23.7031C24.4894 23.7031 27.3282 20.8643 27.3282 17.375C27.3282 13.8598 24.4894 11 21.0001 11ZM21.0001 16.6719C22.1632 16.6719 23.1095 17.6181 23.1095 18.7813C23.1095 19.6979 22.5216 20.4794 21.7032 20.7697V21.5937C21.7032 21.982 21.3884 22.2969 21.0001 22.2969C20.6118 22.2969 20.297 21.982 20.297 21.5937V20.7697C19.4786 20.4794 18.8907 19.6979 18.8907 18.7813C18.8907 18.3929 19.2055 18.0781 19.5939 18.0781C19.9822 18.0781 20.297 18.3929 20.297 18.7813C20.297 19.1077 20.5209 19.382 20.823 19.4609C20.8797 19.4462 20.9388 19.4375 21.0001 19.4375C21.0614 19.4375 21.1205 19.4462 21.1772 19.4609C21.4793 19.382 21.7032 19.1077 21.7032 18.7813C21.7032 18.3935 21.3878 18.0781 21.0001 18.0781C19.837 18.0781 18.8907 17.1319 18.8907 15.9688C18.8907 15.0521 19.4786 14.2706 20.297 13.9803V13.1094C20.297 12.7211 20.6118 12.4063 21.0001 12.4063C21.3884 12.4063 21.7032 12.7211 21.7032 13.1094V13.9803C22.5216 14.2706 23.1095 15.0521 23.1095 15.9688C23.1095 16.3571 22.7947 16.6719 22.4063 16.6719C22.018 16.6719 21.7032 16.3571 21.7032 15.9688C21.7032 15.581 21.3878 15.2656 21.0001 15.2656C20.6124 15.2656 20.297 15.581 20.297 15.9688C20.297 16.3565 20.6124 16.6719 21.0001 16.6719Z" fill="#FF0099"/>
<path d="M22.4909 27.1342C22.4904 27.1337 22.49 27.1332 22.4895 27.1327C22.1077 26.7516 21.581 26.5156 21.0002 26.5156C21.0001 26.5156 21.0001 26.5156 21.0001 26.5156C21.0001 26.5156 21.0001 26.5156 21 26.5156C20.4192 26.5156 19.8925 26.7516 19.5107 27.1327C19.5102 27.1332 19.5098 27.1337 19.5093 27.1342C19.5089 27.1347 19.5083 27.1351 19.5078 27.1356C19.1267 27.5174 18.8907 28.0441 18.8907 28.6249C18.8907 29.2058 19.1267 29.7324 19.5078 30.1143C19.5083 30.1148 19.5089 30.1152 19.5093 30.1156C19.5098 30.1161 19.5102 30.1167 19.5107 30.1171C19.8925 30.4982 20.4193 30.7343 21.0001 30.7343C21.5808 30.7343 22.1076 30.4982 22.4894 30.1171C22.4899 30.1167 22.4903 30.1161 22.4908 30.1156C22.4912 30.1152 22.4918 30.1148 22.4923 30.1143C22.8734 29.7324 23.1094 29.2058 23.1094 28.6249C23.1094 28.0441 22.8734 27.5174 22.4923 27.1356C22.4919 27.1351 22.4913 27.1347 22.4909 27.1342Z" fill="#FF0099"/>
<path d="M18.0683 26.6878L16.058 24.6775C15.3292 25.588 14.8465 26.7032 14.7111 27.922H17.5551C17.6465 27.4738 17.8238 27.0567 18.0683 26.6878Z" fill="#FF0099"/>
<path d="M17.772 24.4028L19.0627 25.6935C19.4316 25.4489 19.8487 25.2716 20.2969 25.1803V25.0772C19.4031 24.9962 18.5527 24.7628 17.772 24.4028Z" fill="#FF0099"/>
<path d="M23.9317 30.5623L25.9551 32.5856C26.6776 31.6701 27.1558 30.5506 27.2895 29.3281H24.445C24.3536 29.7763 24.1763 30.1934 23.9317 30.5623Z" fill="#FF0099"/>
<path d="M22.9373 31.5566C22.5685 31.8012 22.1513 31.9785 21.7031 32.0698V34.9604C22.9309 34.823 24.0536 34.3304 24.9678 33.5871L22.9373 31.5566Z" fill="#FF0099"/>
<path d="M17.5551 29.3281H14.7106C14.8444 30.5506 15.3224 31.6701 16.045 32.5856L18.0683 30.5623C17.8238 30.1934 17.6465 29.7763 17.5551 29.3281Z" fill="#FF0099"/>
<path d="M23.9317 26.688C24.1763 27.0569 24.3536 27.474 24.4449 27.9222H27.2889C27.1535 26.7035 26.6708 25.5882 25.942 24.6777L23.9317 26.688Z" fill="#FF0099"/>
<path d="M20.2969 32.0698C19.8487 31.9784 19.4316 31.8012 19.0627 31.5566L17.0321 33.5871C17.9463 34.3304 19.0691 34.823 20.2968 34.9604V32.0698H20.2969Z" fill="#FF0099"/>
<path d="M12.5157 19.4844C12.904 19.4844 13.2188 19.1696 13.2188 18.7813C13.2188 18.3929 12.904 18.0781 12.5157 18.0781C11.3525 18.0781 10.4063 19.0244 10.4063 20.1875V25.5212L10.2003 25.3153C9.92576 25.0407 9.48054 25.0407 9.20595 25.3153C8.93135 25.5899 8.93135 26.035 9.20595 26.3096L10.6121 27.7158C10.7397 27.8434 10.9204 27.9218 11.1094 27.9218C11.2878 27.9218 11.4717 27.8507 11.6066 27.7158L13.0128 26.3096C13.2874 26.035 13.2874 25.5899 13.0128 25.3153C12.7382 25.0407 12.293 25.0407 12.0184 25.3153L11.8125 25.5212V20.1875C11.8125 19.7998 12.1279 19.4844 12.5157 19.4844Z" fill="#FF0099"/>
<path d="M33.0001 20.1877C33.0001 20.0077 32.9314 19.8277 32.7941 19.6904L31.388 18.2843C31.2611 18.1574 31.0829 18.0784 30.8907 18.0784C30.7076 18.0784 30.5269 18.1508 30.3935 18.2843L28.9873 19.6904C28.85 19.8277 28.7814 20.0077 28.7814 20.1877C28.7814 20.5759 29.096 20.8908 29.4845 20.8908C29.6645 20.8908 29.8444 20.8222 29.9817 20.6849L30.1877 20.4789V25.8126C30.1877 26.2003 29.8723 26.5158 29.4845 26.5158C29.0962 26.5158 28.7815 26.8306 28.7815 27.2189C28.7815 27.6072 29.0965 27.922 29.4848 27.922C30.6477 27.922 31.5939 26.9757 31.5939 25.8126V20.4789L31.7999 20.6849C31.9372 20.8222 32.1171 20.8908 32.297 20.8908C32.6852 20.8908 33.0001 20.5762 33.0001 20.1877Z" fill="#FF0099"/>
<path d="M21.7032 25.0772V25.1803C22.1513 25.2716 22.5685 25.4489 22.9373 25.6935L24.228 24.4028C23.4473 24.7629 22.597 24.9963 21.7032 25.0772Z" fill="#FF0099"/>
<path opacity="0.07" d="M21.625 42C33.223 42 42.625 32.598 42.625 21C42.625 9.40202 33.223 0 21.625 0C10.027 0 0.625 9.40202 0.625 21C0.625 32.598 10.027 42 21.625 42Z" fill="#5AC8FA"/>
</svg>
