<svg width="24" height="24" viewBox="0 0 24 24" fill="none" xmlns="http://www.w3.org/2000/svg">
<g clip-path="url(#clip0)">
<path d="M12 0.0197754C8.51067 0.0197754 5.67188 2.87957 5.67188 6.39478C5.67188 9.8841 8.51067 12.7229 12 12.7229C15.4893 12.7229 18.3281 9.8841 18.3281 6.39478C18.3281 2.87957 15.4893 0.0197754 12 0.0197754ZM12 5.69165C13.1631 5.69165 14.1094 6.63792 14.1094 7.80103C14.1094 8.71767 13.5215 9.49921 12.7031 9.78946V10.6135C12.7031 11.0018 12.3883 11.3167 12 11.3167C11.6117 11.3167 11.2969 11.0018 11.2969 10.6135V9.78946C10.4785 9.49921 9.89062 8.71767 9.89062 7.80103C9.89062 7.41271 10.2054 7.0979 10.5938 7.0979C10.9821 7.0979 11.2969 7.41271 11.2969 7.80103C11.2969 8.12746 11.5208 8.40182 11.8229 8.48067C11.8796 8.46595 11.9387 8.45728 12 8.45728C12.0613 8.45728 12.1204 8.46595 12.1771 8.48067C12.4792 8.40182 12.7031 8.12746 12.7031 7.80103C12.7031 7.41332 12.3877 7.0979 12 7.0979C10.8369 7.0979 9.89062 6.15163 9.89062 4.98853C9.89062 4.07188 10.4785 3.29034 11.2969 3.00009V2.12915C11.2969 1.74084 11.6117 1.42603 12 1.42603C12.3883 1.42603 12.7031 1.74084 12.7031 2.12915V3.00009C13.5215 3.29034 14.1094 4.07188 14.1094 4.98853C14.1094 5.37684 13.7946 5.69165 13.4062 5.69165C13.0179 5.69165 12.7031 5.37684 12.7031 4.98853C12.7031 4.60082 12.3877 4.2854 12 4.2854C11.6123 4.2854 11.2969 4.60082 11.2969 4.98853C11.2969 5.37623 11.6123 5.69165 12 5.69165Z" fill="#000"/>
<path d="M13.4908 16.154C13.4903 16.1535 13.4899 16.153 13.4894 16.1525C13.1076 15.7714 12.5809 15.5354 12.0001 15.5354C12 15.5354 12 15.5354 12 15.5354C12 15.5354 12 15.5354 11.9999 15.5354C11.4191 15.5354 10.8924 15.7714 10.5106 16.1525C10.5101 16.153 10.5097 16.1535 10.5092 16.154C10.5088 16.1545 10.5082 16.1549 10.5077 16.1554C10.1266 16.5372 9.89062 17.0639 9.89062 17.6447C9.89062 18.2256 10.1266 18.7522 10.5077 19.1341C10.5082 19.1346 10.5088 19.135 10.5092 19.1354C10.5097 19.1359 10.5101 19.1365 10.5106 19.1369C10.8924 19.518 11.4192 19.7541 12 19.7541C12.5807 19.7541 13.1075 19.518 13.4893 19.1369C13.4898 19.1365 13.4902 19.1359 13.4907 19.1354C13.4911 19.135 13.4917 19.1346 13.4922 19.1341C13.8733 18.7522 14.1093 18.2256 14.1093 17.6447C14.1093 17.0639 13.8733 16.5372 13.4922 16.1554C13.4918 16.1549 13.4912 16.1545 13.4908 16.154Z" fill="#000"/>
<path d="M9.06825 15.7076L7.05792 13.6973C6.32916 14.6078 5.84639 15.723 5.71106 16.9418H8.55502C8.64643 16.4936 8.82371 16.0765 9.06825 15.7076Z" fill="#000"/>
<path d="M8.77197 13.4226L10.0626 14.7133C10.4315 14.4687 10.8486 14.2914 11.2968 14.2001V14.097C10.403 14.016 9.55263 13.7826 8.77197 13.4226Z" fill="#000"/>
<path d="M14.9316 19.5821L16.955 21.6054C17.6775 20.6899 18.1557 19.5704 18.2894 18.3479H15.4449C15.3535 18.7961 15.1762 19.2132 14.9316 19.5821Z" fill="#000"/>
<path d="M13.9372 20.5764C13.5684 20.821 13.1512 20.9983 12.703 21.0896V23.9802C13.9308 23.8428 15.0535 23.3502 15.9677 22.6069L13.9372 20.5764Z" fill="#000"/>
<path d="M8.55507 18.3479H5.71051C5.84429 19.5704 6.32237 20.6899 7.04495 21.6054L9.06826 19.5821C8.82371 19.2132 8.64643 18.7961 8.55507 18.3479Z" fill="#000"/>
<path d="M14.9316 15.7078C15.1762 16.0767 15.3535 16.4938 15.4448 16.942H18.2888C18.1534 15.7233 17.6707 14.608 16.9419 13.6975L14.9316 15.7078Z" fill="#000"/>
<path d="M11.2968 21.0896C10.8486 20.9982 10.4315 20.821 10.0626 20.5764L8.03204 22.6069C8.9462 23.3502 10.069 23.8428 11.2967 23.9802V21.0896H11.2968Z" fill="#000"/>
<path d="M3.51559 8.50415C3.9039 8.50415 4.21871 8.18934 4.21871 7.80103C4.21871 7.41271 3.9039 7.0979 3.51559 7.0979C2.35248 7.0979 1.40621 8.04417 1.40621 9.20728V14.541L1.20024 14.3351C0.925697 14.0605 0.480478 14.0605 0.205884 14.3351C-0.0687095 14.6097 -0.0687095 15.0548 0.205884 15.3294L1.61204 16.7356C1.73963 16.8632 1.92034 16.9416 2.10929 16.9416C2.28774 16.9416 2.47163 16.8705 2.60654 16.7356L4.0127 15.3294C4.28729 15.0548 4.28729 14.6097 4.0127 14.3351C3.73815 14.0605 3.29293 14.0605 3.01834 14.3351L2.81246 14.541V9.20728C2.81246 8.81957 3.12788 8.50415 3.51559 8.50415Z" fill="#000"/>
<path d="M24 9.20743C24 9.02747 23.9313 8.84752 23.794 8.71022L22.3879 7.30407C22.261 7.17713 22.0828 7.09814 21.8906 7.09814C21.7075 7.09814 21.5268 7.17057 21.3934 7.30407L19.9872 8.71022C19.8499 8.84752 19.7813 9.02747 19.7813 9.20743C19.7813 9.59569 20.0959 9.91055 20.4844 9.91055C20.6644 9.91055 20.8443 9.84193 20.9816 9.70463L21.1876 9.49866V14.8324C21.1876 15.2201 20.8722 15.5356 20.4844 15.5356C20.0961 15.5356 19.7814 15.8504 19.7814 16.2387C19.7814 16.627 20.0964 16.9418 20.4847 16.9418C21.6476 16.9418 22.5938 15.9955 22.5938 14.8324V9.49866L22.7998 9.70463C22.9371 9.84193 23.117 9.91055 23.2969 9.91055C23.6851 9.91055 24 9.59593 24 9.20743Z" fill="#000"/>
<path d="M12.7031 14.097V14.2001C13.1512 14.2914 13.5684 14.4687 13.9372 14.7133L15.2279 13.4226C14.4472 13.7827 13.5969 14.0161 12.7031 14.097Z" fill="#000"/>
</g>
<defs>
<clipPath id="clip0">
<rect width="24" height="24" fill="#000"/>
</clipPath>
</defs>
</svg>
