<svg width="20" height="21" viewBox="0 0 20 21" fill="none" xmlns="http://www.w3.org/2000/svg">
<path d="M10 12.375C11.0355 12.375 11.875 11.5355 11.875 10.5C11.875 9.46447 11.0355 8.625 10 8.625C8.96447 8.625 8.125 9.46447 8.125 10.5C8.125 11.5355 8.96447 12.375 10 12.375Z" fill="#000"/>
<path d="M18.3746 12.2188L18.3563 12.2039L17.1235 11.2371C17.0454 11.1753 16.9831 11.0959 16.9417 11.0054C16.9002 10.9149 16.8809 10.8159 16.8852 10.7164V10.2648C16.8813 10.166 16.9009 10.0677 16.9424 9.97791C16.9838 9.88814 17.046 9.80949 17.1238 9.74844L18.3563 8.78125L18.3746 8.76641C18.5647 8.60807 18.6922 8.38729 18.7345 8.14354C18.7767 7.8998 18.7308 7.64898 18.6051 7.43594L16.9367 4.54922C16.9348 4.5465 16.9331 4.54362 16.9317 4.54063C16.8052 4.33053 16.6092 4.17135 16.3777 4.09071C16.1461 4.01008 15.8937 4.01309 15.6641 4.09922L15.6504 4.1043L14.2012 4.6875C14.1097 4.72448 14.0108 4.7392 13.9125 4.73044C13.8142 4.72168 13.7194 4.68969 13.636 4.63711C13.5078 4.55638 13.3776 4.48008 13.2453 4.4082C13.1596 4.36169 13.0859 4.29567 13.0303 4.21547C12.9748 4.13527 12.9388 4.04313 12.9254 3.94648L12.7071 2.4L12.7024 2.37187C12.6548 2.13234 12.5263 1.91647 12.3383 1.76054C12.1504 1.60462 11.9145 1.51813 11.6703 1.51562H8.32971C8.08208 1.51642 7.84267 1.60458 7.65366 1.76457C7.46465 1.92457 7.33817 2.14613 7.2965 2.39023L7.29299 2.41211L7.07541 3.96172C7.06206 4.05809 7.0264 4.15001 6.97127 4.23017C6.91614 4.31032 6.84305 4.3765 6.75783 4.42344C6.62424 4.49531 6.49377 4.57148 6.36721 4.65078C6.28387 4.70304 6.18933 4.73479 6.09134 4.74341C5.99335 4.75203 5.89472 4.73729 5.80354 4.70039L4.35314 4.11445L4.33947 4.10898C4.10957 4.02276 3.85672 4.01987 3.62491 4.1008C3.3931 4.18173 3.197 4.34138 3.07072 4.55195L3.06564 4.56055L1.39494 7.44922C1.26901 7.66248 1.22305 7.91357 1.26528 8.15761C1.3075 8.40164 1.43515 8.6227 1.62541 8.78125L1.64377 8.79609L2.87658 9.76289C2.95465 9.82465 3.01696 9.90405 3.05838 9.99457C3.0998 10.0851 3.11916 10.1841 3.11486 10.2836V10.7352C3.11877 10.834 3.09918 10.9323 3.05769 11.0221C3.0162 11.1119 2.95399 11.1905 2.87619 11.2516L1.64377 12.2188L1.62541 12.2336C1.43534 12.3919 1.30779 12.6127 1.26557 12.8565C1.22335 13.1002 1.2692 13.351 1.39494 13.5641L3.0633 16.4508C3.06522 16.4535 3.06692 16.4564 3.06838 16.4594C3.19479 16.6695 3.3908 16.8287 3.62235 16.9093C3.85391 16.9899 4.10639 16.9869 4.33596 16.9008L4.34963 16.8957L5.79768 16.3125C5.88914 16.2755 5.98809 16.2608 6.08637 16.2696C6.18464 16.2783 6.27943 16.3103 6.36291 16.3629C6.49103 16.4439 6.62124 16.5202 6.75354 16.5918C6.83931 16.6383 6.91295 16.7043 6.96852 16.7845C7.02409 16.8647 7.06004 16.9569 7.07346 17.0535L7.29064 18.6L7.29533 18.6281C7.34295 18.868 7.47183 19.0842 7.66025 19.2402C7.84868 19.3962 8.08511 19.4824 8.32971 19.4844H11.6703C11.918 19.4836 12.1574 19.3954 12.3464 19.2354C12.5354 19.0754 12.6619 18.8539 12.7035 18.6098L12.7071 18.5879L12.9246 17.0383C12.9382 16.9417 12.9741 16.8497 13.0296 16.7695C13.0851 16.6893 13.1586 16.6233 13.2442 16.5766C13.3778 16.5047 13.5082 16.4285 13.6348 16.3492C13.7181 16.297 13.8127 16.2652 13.9107 16.2566C14.0086 16.248 14.1073 16.2627 14.1985 16.2996L15.6488 16.8836L15.6625 16.8891C15.8924 16.9754 16.1453 16.9784 16.3772 16.8975C16.609 16.8165 16.8051 16.6568 16.9313 16.4461C16.9328 16.4431 16.9345 16.4403 16.9363 16.4375L18.6047 13.5512C18.7309 13.3379 18.777 13.0868 18.7348 12.8426C18.6927 12.5985 18.565 12.3773 18.3746 12.2188ZM13.1215 10.6469C13.0931 11.2518 12.8895 11.8354 12.5355 12.3268C12.1815 12.8181 11.6924 13.196 11.1276 13.4145C10.5628 13.6331 9.94671 13.6828 9.3542 13.5576C8.76169 13.4325 8.2183 13.1379 7.79011 12.7097C7.36193 12.2814 7.06739 11.738 6.94232 11.1455C6.81726 10.5529 6.86704 9.93685 7.08563 9.37209C7.30422 8.80734 7.68219 8.31826 8.17359 7.96434C8.66498 7.61041 9.24862 7.40689 9.85354 7.37852C10.2878 7.3594 10.7213 7.43085 11.1265 7.58834C11.5317 7.74583 11.8996 7.98591 12.207 8.29331C12.5144 8.60071 12.7544 8.9687 12.9118 9.37389C13.0693 9.77908 13.1407 10.2126 13.1215 10.6469Z" fill="#000"/>
</svg>
